ffmpeg version 3.4.6-0ubuntu0.18.04.1 Copyright (c) 2000-2019 the FFmpeg developers
  built with gcc 7 (Ubuntu 7.3.0-16ubuntu3)
  configuration: --prefix=/usr --extra-version=0ubuntu0.18.04.1 --toolchain=hardened --libdir=/usr/lib/x86_64-linux-gnu --incdir=/usr/include/x86_64-linux-gnu --enable-gpl --disable-stripping --enable-avresample --enable-avisynth --enable-gnutls --enable-ladspa --enable-libass --enable-libbluray --enable-libbs2b --enable-libcaca --enable-libcdio --enable-libflite --enable-libfontconfig --enable-libfreetype --enable-libfribidi --enable-libgme --enable-libgsm --enable-libmp3lame --enable-libmysofa --enable-libopenjpeg --enable-libopenmpt --enable-libopus --enable-libpulse --enable-librubberband --enable-librsvg --enable-libshine --enable-libsnappy --enable-libsoxr --enable-libspeex --enable-libssh --enable-libtheora --enable-libtwolame --enable-libvorbis --enable-libvpx --enable-libwavpack --enable-libwebp --enable-libx265 --enable-libxml2 --enable-libxvid --enable-libzmq --enable-libzvbi --enable-omx --enable-openal --enable-opengl --enable-sdl2 --enable-libdc1394 --enable-libdrm --enable-libiec61883 --enable-chromaprint --enable-frei0r --enable-libopencv --enable-libx264 --enable-shared
  libavutil      55. 78.100 / 55. 78.100
  libavcodec     57.107.100 / 57.107.100
  libavformat    57. 83.100 / 57. 83.100
  libavdevice    57. 10.100 / 57. 10.100
  libavfilter     6.107.100 /  6.107.100
  libavresample   3.  7.  0 /  3.  7.  0
  libswscale      4.  8.100 /  4.  8.100
  libswresample   2.  9.100 /  2.  9.100
  libpostproc    54.  7.100 / 54.  7.100
Input #0, image2pipe, from 'pipe:':
  Duration: N/A, bitrate: N/A
    Stream #0:0: Video: ppm, rgb24, 320x240, 20 fps, 20 tbr, 20 tbn, 20 tbc
Stream mapping:
  Stream #0:0 -> #0:0 (ppm (native) -> h264 (libx264))
[libx264 @ 0x561c3b7baf40] using cpu capabilities: MMX2 SSE2Fast SSSE3 SSE4.2 AVX FMA3 BMI2 AVX2
[libx264 @ 0x561c3b7baf40] profile High, level 1.3
[libx264 @ 0x561c3b7baf40] 264 - core 152 r2854 e9a5903 - H.264/MPEG-4 AVC codec - Copyleft 2003-2017 - http://www.videolan.org/x264.html - options: cabac=1 ref=3 deblock=1:0:0 analyse=0x3:0x113 me=hex subme=7 psy=1 psy_rd=1.00:0.00 mixed_ref=1 me_range=16 chroma_me=1 trellis=1 8x8dct=1 cqm=0 deadzone=21,11 fast_pskip=1 chroma_qp_offset=-2 threads=1 lookahead_threads=1 sliced_threads=0 nr=0 decimate=1 interlaced=0 bluray_compat=0 constrained_intra=0 bframes=3 b_pyramid=2 b_adapt=1 b_bias=0 direct=1 weightb=1 open_gop=0 weightp=2 keyint=250 keyint_min=20 scenecut=40 intra_refresh=0 rc_lookahead=40 rc=abr mbtree=1 bitrate=400 ratetol=1.0 qcomp=0.60 qpmin=0 qpmax=69 qpstep=4 ip_ratio=1.40 aq=1:1.00
Output #0, mp4, to './mission_records/643e3d35-23b6-4cef-9757-5c058076d1c4/video.mp4':
  Metadata:
    encoder         : Lavf57.83.100
    Stream #0:0: Video: h264 (libx264) (avc1 / 0x31637661), yuv420p, 320x240, q=-1--1, 400 kb/s, 20 fps, 10240 tbn, 20 tbc
    Metadata:
      encoder         : Lavc57.107.100 libx264
    Side data:
      cpb: bitrate max/min/avg: 0/0/400000 buffer size: 0 vbv_delay: -1
frame=   32 fps=0.0 q=0.0 size=       0kB time=00:00:00.00 bitrate=N/A speed=   0x    frame=   41 fps= 39 q=0.0 size=       0kB time=00:00:00.00 bitrate=N/A speed=   0x    frame=   50 fps= 32 q=25.0 size=       0kB time=00:00:00.30 bitrate=   1.3kbits/s speed=0.19x    frame=   59 fps= 28 q=26.0 size=       0kB time=00:00:00.75 bitrate=   0.5kbits/s speed=0.356x    frame=   67 fps= 26 q=27.0 size=       0kB time=00:00:01.15 bitrate=   0.3kbits/s speed=0.441x    frame=   76 fps= 24 q=27.0 size=       0kB time=00:00:01.60 bitrate=   0.2kbits/s speed=0.512x    frame=   84 fps= 23 q=27.0 size=       0kB time=00:00:02.00 bitrate=   0.2kbits/s speed=0.551x    frame=   87 fps= 20 q=27.0 Lsize=     225kB time=00:00:04.20 bitrate= 439.6kbits/s speed=0.955x    
video:224kB audio:0kB subtitle:0kB other streams:0kB global headers:0kB muxing overhead: 0.612938%
[libx264 @ 0x561c3b7baf40] frame I:5     Avg QP:19.67  size:  4171
[libx264 @ 0x561c3b7baf40] frame P:67    Avg QP:21.86  size:  2664
[libx264 @ 0x561c3b7baf40] frame B:15    Avg QP:22.75  size:  1958
[libx264 @ 0x561c3b7baf40] consecutive B-frames: 73.6%  9.2%  3.4% 13.8%
[libx264 @ 0x561c3b7baf40] mb I  I16..4: 28.5% 61.4% 10.1%
[libx264 @ 0x561c3b7baf40] mb P  I16..4: 21.2% 32.4%  4.4%  P16..4: 19.5%  4.6%  4.3%  0.0%  0.0%    skip:13.6%
[libx264 @ 0x561c3b7baf40] mb B  I16..4:  5.5%  9.1%  1.8%  B16..8: 30.6%  8.8%  2.4%  direct:13.1%  skip:28.8%  L0:51.7% L1:42.7% BI: 5.6%
[libx264 @ 0x561c3b7baf40] final ratefactor: 22.40
[libx264 @ 0x561c3b7baf40] 8x8 transform intra:56.5% inter:70.1%
[libx264 @ 0x561c3b7baf40] coded y,uvDC,uvAC intra: 46.1% 25.1% 3.1% inter: 16.6% 20.8% 0.1%
[libx264 @ 0x561c3b7baf40] i16 v,h,dc,p: 11% 57%  9% 23%
[libx264 @ 0x561c3b7baf40] i8 v,h,dc,ddl,ddr,vr,hd,vl,hu:  5% 23% 43%  4%  5%  3%  7%  3%  7%
[libx264 @ 0x561c3b7baf40] i4 v,h,dc,ddl,ddr,vr,hd,vl,hu:  8% 32% 26%  5%  7%  4%  9%  3%  7%
[libx264 @ 0x561c3b7baf40] i8c dc,h,v,p: 58% 35%  1%  6%
[libx264 @ 0x561c3b7baf40] Weighted P-Frames: Y:16.4% UV:9.0%
[libx264 @ 0x561c3b7baf40] ref P L0: 66.0%  4.5% 18.7%  9.6%  1.3%
[libx264 @ 0x561c3b7baf40] ref B L0: 91.0%  8.9%  0.2%
[libx264 @ 0x561c3b7baf40] ref B L1: 89.8% 10.2%
[libx264 @ 0x561c3b7baf40] kb/s:420.57
